<svg width="80" height="80" viewBox="0 0 80 80" fill="none" xmlns="http://www.w3.org/2000/svg">
  <rect width="80" height="80" rx="40" fill="#1976D2"/>
  <path d="M40 60C51.0457 60 60 51.0457 60 40C60 28.9543 51.0457 20 40 20C28.9543 20 20 28.9543 20 40C20 51.0457 28.9543 60 40 60Z" fill="#FFFFFF"/>
  <path d="M40 53C46.0751 53 51 48.0751 51 42C51 35.9249 46.0751 31 40 31C33.9249 31 29 35.9249 29 42C29 48.0751 33.9249 53 40 53Z" fill="#1976D2"/>
  <path d="M40 26C36.134 26 33 29.134 33 33C33 36.866 36.134 40 40 40C43.866 40 47 36.866 47 33C47 29.134 43.866 26 40 26Z" fill="#FFFFFF"/>
  <path d="M27 56C27 50.4772 32.4772 45 38 45H42C47.5228 45 53 50.4772 53 56V60H27V56Z" fill="#FFFFFF"/>
</svg> 