<svg width="200" height="200" viewBox="0 0 200 200" xmlns="http://www.w3.org/2000/svg">
  <!-- 背景圆形 -->
  <circle cx="100" cy="100" r="90" fill="#27AE60"/>
  
  <!-- 建筑物 -->
  <rect x="60" y="70" width="35" height="80" fill="#FFFFFF"/>
  <rect x="105" y="50" width="35" height="100" fill="#FFFFFF"/>
  
  <!-- 窗户 -->
  <rect x="65" y="80" width="10" height="10" fill="#27AE60"/>
  <rect x="80" y="80" width="10" height="10" fill="#27AE60"/>
  <rect x="65" y="100" width="10" height="10" fill="#27AE60"/>
  <rect x="80" y="100" width="10" height="10" fill="#27AE60"/>
  <rect x="65" y="120" width="10" height="10" fill="#27AE60"/>
  <rect x="80" y="120" width="10" height="10" fill="#27AE60"/>
  
  <rect x="110" y="60" width="10" height="10" fill="#27AE60"/>
  <rect x="125" y="60" width="10" height="10" fill="#27AE60"/>
  <rect x="110" y="80" width="10" height="10" fill="#27AE60"/>
  <rect x="125" y="80" width="10" height="10" fill="#27AE60"/>
  <rect x="110" y="100" width="10" height="10" fill="#27AE60"/>
  <rect x="125" y="100" width="10" height="10" fill="#27AE60"/>
  <rect x="110" y="120" width="10" height="10" fill="#27AE60"/>
  <rect x="125" y="120" width="10" height="10" fill="#27AE60"/>
  
  <!-- 地面 -->
  <rect x="50" y="150" width="100" height="10" fill="#FFFFFF"/>
</svg> 